<?xml version="1.0" encoding="UTF-8"?><svg id="Layer_1" xmlns="http://www.w3.org/2000/svg" viewBox="0 0 500 500"><defs><style>.cls-1{fill:#919191;}.cls-2{fill:#ccc;}.cls-3{fill:#606060;}.cls-4{fill:#fff;}.cls-5{fill:#ff2424;}</style></defs><rect width="500" height="500" rx="70.24" ry="70.24"/><path class="cls-5" d="M347.39,415.11h-83.49c-5.85,0-10.59-4.74-10.59-10.59s4.74-10.59,10.59-10.59h83.49c16.25,0,29.46-13.22,29.46-29.46v-78.15c0-5.85,4.74-10.59,10.59-10.59s10.59,4.74,10.59,10.59v78.15c0,27.93-22.72,50.65-50.65,50.65Z"/><path class="cls-5" d="M387.45,259.99c-5.85,0-10.59-4.74-10.59-10.59v-97.85c0-5.85,4.74-10.59,10.59-10.59s10.59,4.74,10.59,10.59v97.85c0,5.85-4.74,10.59-10.59,10.59Z"/><path class="cls-5" d="M226.28,415.11h-84.83c-27.93,0-50.65-22.72-50.65-50.65v-217.75c0-27.93,22.72-50.65,50.65-50.65h196.52c5.85,0,10.59,4.74,10.59,10.59s-4.74,10.59-10.59,10.59h-196.52c-16.25,0-29.46,13.22-29.46,29.46v217.75c0,16.25,13.22,29.46,29.46,29.46h84.83c5.85,0,10.59,4.74,10.59,10.59s-4.74,10.59-10.59,10.59Z"/><circle class="cls-5" cx="387.45" cy="106.65" r="21.76"/><rect class="cls-4" x="145.49" y="255.59" width="88.79" height="112.45" rx="15.37" ry="15.37"/><rect class="cls-2" x="145.49" y="145.31" width="88.79" height="88.79" rx="15.37" ry="15.37"/><rect class="cls-1" x="259.33" y="145.31" width="88.79" height="88.79" rx="15.37" ry="15.37"/><rect class="cls-3" x="259.33" y="263.64" width="88.79" height="41.31" rx="15.37" ry="15.37"/><rect class="cls-1" x="259.33" y="326.73" width="88.79" height="41.31" rx="15.37" ry="15.37"/></svg>