<?xml version="1.0" encoding="UTF-8"?><svg id="Layer_1" xmlns="http://www.w3.org/2000/svg" viewBox="0 0 500 500"><defs><style>.cls-1{fill:#919191;}.cls-2{fill:#ccc;}.cls-3{fill:#606060;}.cls-4{fill:#ff2424;}</style></defs><path class="cls-4" d="M397.46,500h-126.41c-8.86,0-16.04-7.18-16.04-16.04s7.18-16.04,16.04-16.04h126.41c24.6,0,44.61-20.01,44.61-44.61v-118.34c0-8.86,7.18-16.04,16.04-16.04s16.04,7.18,16.04,16.04v118.34c0,42.29-34.4,76.69-76.69,76.69Z"/><path class="cls-4" d="M458.11,265.13c-8.86,0-16.04-7.18-16.04-16.04V100.93c0-8.86,7.18-16.04,16.04-16.04s16.04,7.18,16.04,16.04v148.16c0,8.86-7.18,16.04-16.04,16.04Z"/><path class="cls-4" d="M214.08,500H85.63c-42.29,0-76.69-34.4-76.69-76.69V93.61c0-42.29,34.4-76.69,76.69-76.69h297.56c8.86,0,16.04,7.18,16.04,16.04s-7.18,16.04-16.04,16.04H85.63c-24.6,0-44.61,20.01-44.61,44.61v329.7c0,24.6,20.01,44.61,44.61,44.61h128.45c8.86,0,16.04,7.18,16.04,16.04s-7.18,16.04-16.04,16.04Z"/><circle class="cls-4" cx="458.11" cy="32.95" r="32.95"/><rect x="91.75" y="258.46" width="134.45" height="170.26" rx="23.27" ry="23.27"/><rect class="cls-2" x="91.75" y="91.48" width="134.45" height="134.45" rx="23.27" ry="23.27"/><rect class="cls-1" x="264.13" y="91.48" width="134.45" height="134.45" rx="23.27" ry="23.27"/><rect class="cls-3" x="264.13" y="270.65" width="134.45" height="62.54" rx="23.27" ry="23.27"/><rect class="cls-1" x="264.13" y="366.18" width="134.45" height="62.54" rx="23.27" ry="23.27"/></svg>