<?xml version="1.0" encoding="UTF-8"?><svg id="Layer_2" xmlns="http://www.w3.org/2000/svg" viewBox="0 0 245.37 61.17"><defs><style>.cls-1{fill:#919191;}.cls-2{fill:#ccc;}.cls-3{fill:#606060;}.cls-4{fill:#fff;}.cls-5{fill:red;}.cls-6{fill:#ff2424;}</style></defs><g id="Layer_1-2"><path class="cls-6" d="M47.53,61.17h-15.47c-1.08,0-1.96-.88-1.96-1.96s.88-1.96,1.96-1.96h15.47c3.01,0,5.46-2.45,5.46-5.46v-14.48c0-1.08.88-1.96,1.96-1.96s1.96.88,1.96,1.96v14.48c0,5.17-4.21,9.38-9.38,9.38Z"/><path class="cls-6" d="M54.95,32.44c-1.08,0-1.96-.88-1.96-1.96V12.35c0-1.08.88-1.96,1.96-1.96s1.96.88,1.96,1.96v18.13c0,1.08-.88,1.96-1.96,1.96Z"/><path class="cls-6" d="M25.1,61.17h-15.71c-5.17,0-9.38-4.21-9.38-9.38V11.45C0,6.28,4.21,2.07,9.38,2.07h36.4c1.08,0,1.96.88,1.96,1.96s-.88,1.96-1.96,1.96H9.38c-3.01,0-5.46,2.45-5.46,5.46v40.34c0,3.01,2.45,5.46,5.46,5.46h15.71c1.08,0,1.96.88,1.96,1.96s-.88,1.96-1.96,1.96Z"/><circle class="cls-6" cx="54.95" cy="4.03" r="4.03"/><rect class="cls-4" x="10.13" y="31.62" width="16.45" height="20.83" rx="2.85" ry="2.85"/><rect class="cls-2" x="10.13" y="11.19" width="16.45" height="16.45" rx="2.85" ry="2.85"/><rect class="cls-1" x="31.22" y="11.19" width="16.45" height="16.45" rx="2.85" ry="2.85"/><rect class="cls-3" x="31.22" y="33.11" width="16.45" height="7.65" rx="2.85" ry="2.85"/><rect class="cls-1" x="31.22" y="44.8" width="16.45" height="7.65" rx="2.85" ry="2.85"/><path class="cls-4" d="M87.18,34.02l-1.89-4.3h-10.52l-1.86,4.3h-3.77l9.05-19.43h3.91l9.02,19.43h-3.94ZM75.96,27.03h8.16l-4.08-9.38-4.08,9.38Z"/><path class="cls-4" d="M91.95,19.76c0-3.55,1.61-5.16,5.16-5.16h8.83c3.55,0,5.16,1.61,5.16,5.16v1.17h-3.55v-.58c0-2.03-.75-2.78-2.78-2.78h-6.5c-2.03,0-2.78.75-2.78,2.78v8.02c0,2.03.75,2.78,2.78,2.78h6.61c2.03,0,2.78-.75,2.78-2.78v-2h-5.66v-2.75h9.1v5.25c0,3.55-1.61,5.16-5.16,5.16h-8.83c-3.55,0-5.16-1.61-5.16-5.16v-9.1Z"/><path class="cls-4" d="M117.93,31.05h12.6v2.97h-16.15V14.59h15.88v2.97h-12.32v5h11.21v2.75h-11.21v5.75Z"/><path class="cls-4" d="M148.63,14.59h3.44v19.43h-2.83l-12.6-14.32v14.32h-3.44V14.59h3l12.44,14.1v-14.1Z"/><path class="cls-4" d="M160.54,34.02c-3.55,0-5.16-1.61-5.16-5.16v-9.1c0-3.55,1.61-5.16,5.16-5.16h8.16c3.55,0,5.16,1.61,5.16,5.16v2.05h-3.44v-1.44c0-2.03-.75-2.78-2.78-2.78h-5.94c-2.03,0-2.78.75-2.78,2.78v7.88c0,2.03.75,2.78,2.78,2.78h5.94c2.03,0,2.78-.75,2.78-2.78v-1.69h3.44v2.3c0,3.55-1.61,5.16-5.16,5.16h-8.16Z"/><path class="cls-4" d="M194.82,14.59l-8.44,12.27v7.16h-3.55v-7.16l-8.44-12.27h4.14l6.16,9.35,6.16-9.35h3.97Z"/><path class="cls-5" d="M209.73,34.02c-3.55,0-5.16-1.61-5.16-5.16v-9.1c0-3.55,1.61-5.16,5.16-5.16h8.83c3.55,0,5.16,1.61,5.16,5.16v9.1c0,3.55-1.61,5.16-5.16,5.16h-8.83ZM217.39,30.97c2.03,0,2.78-.75,2.78-2.78v-7.77c0-2.03-.75-2.78-2.78-2.78h-6.5c-2.03,0-2.78.69-2.78,2.78v7.77c0,2.08.75,2.78,2.78,2.78h6.5Z"/><path class="cls-5" d="M226.77,28.33h3.44v1c0,1.42.47,1.89,1.89,1.89h7.83c1.36,0,1.89-.53,1.89-1.89v-1.58c0-1.36-.44-1.75-1.89-1.89l-8.94-.86c-2.78-.22-3.94-1.28-3.94-3.94v-2.53c0-2.69,1.25-3.94,3.94-3.94h10.05c2.66,0,3.94,1.25,3.94,3.94v1.36h-3.44v-.61c0-1.36-.53-1.89-1.89-1.89h-7.16c-1.42,0-1.89.47-1.89,1.89v.94c0,1.36.44,1.75,1.89,1.89l8.94.83c2.78.25,3.94,1.28,3.94,3.94v3.19c0,2.69-1.28,3.94-3.94,3.94h-10.71c-2.69,0-3.94-1.25-3.94-3.94v-1.75Z"/><rect class="cls-5" x="217.77" y="43.82" width="26.48" height=".97"/><rect class="cls-5" x="70.74" y="43.82" width="26.48" height=".97"/><path class="cls-4" d="M112.51,44.11c0-1.72.35-2.08,1.82-2.08h.12c1.47,0,1.82.37,1.82,2.08v.38c0,1.72-.35,2.08-1.82,2.08h-.12c-1.47,0-1.82-.37-1.82-2.08v-.38ZM113.06,44.49c0,1.43.2,1.64,1.28,1.64h.12c1.07,0,1.27-.2,1.27-1.64v-.37c0-1.43-.2-1.64-1.27-1.64h-.12c-1.08,0-1.28.21-1.28,1.64v.37Z"/><path class="cls-4" d="M117.62,46.54h-.54v-4.47h1.75c1.3,0,1.58.21,1.58,1.31v.16c0,1.1-.32,1.32-1.56,1.32h-1.24v1.67ZM118.78,44.43c.97,0,1.1-.14,1.1-.87v-.19c0-.74-.13-.87-1.1-.87h-1.16v1.93h1.16Z"/><path class="cls-4" d="M124.03,46.54h-2.91v-4.47h2.89v.43h-2.35v1.51h2.21v.42h-2.21v1.66h2.37v.44Z"/><path class="cls-4" d="M128.02,46.54h-.55v-.6c0-1.03-.09-1.15-.95-1.15h-1.29v1.75h-.54v-4.47h1.91c1.17,0,1.42.27,1.42,1.24v.15c0,.74-.2.99-.62,1.07h0c.5.11.62.33.62,1.21v.8ZM126.7,44.36c.6,0,.78-.2.78-.82v-.16c0-.73-.15-.87-.99-.87h-1.26v1.85h1.47Z"/><path class="cls-4" d="M132.5,46.54h-.57l-.35-1.01h-2.16l-.35,1.01h-.57l1.62-4.47h.78l1.59,4.47ZM131.44,45.11l-.91-2.64h-.04l-.95,2.64h1.89Z"/><path class="cls-4" d="M134.18,46.54h-.55v-4.03h-1.42v-.44h3.38v.44h-1.42v4.03Z"/><path class="cls-4" d="M139.05,46.54h-2.91v-4.47h2.89v.43h-2.35v1.51h2.21v.42h-2.21v1.66h2.37v.44Z"/><path class="cls-5" d="M142.95,45.12h-1.67v-.45h1.67v.45Z"/><path class="cls-4" d="M149.04,46.54h-.57l-.35-1.01h-2.16l-.35,1.01h-.57l1.62-4.47h.78l1.59,4.47ZM147.99,45.11l-.91-2.64h-.04l-.95,2.64h1.89Z"/><path class="cls-4" d="M151.16,46.58c-1.41,0-1.72-.22-1.72-1.49v-3.02h.55v2.97c0,.97.2,1.08,1.16,1.08h.12c.96,0,1.17-.12,1.17-1.08v-2.97h.55v3.02c0,1.27-.32,1.49-1.73,1.49h-.1Z"/><path class="cls-4" d="M155.45,46.54h-.55v-4.03h-1.42v-.44h3.38v.44h-1.42v4.03Z"/><path class="cls-4" d="M157.14,44.11c0-1.72.35-2.08,1.82-2.08h.12c1.47,0,1.82.37,1.82,2.08v.38c0,1.72-.35,2.08-1.82,2.08h-.12c-1.47,0-1.82-.37-1.82-2.08v-.38ZM157.69,44.49c0,1.43.2,1.64,1.28,1.64h.12c1.07,0,1.27-.2,1.27-1.64v-.37c0-1.43-.2-1.64-1.27-1.64h-.12c-1.08,0-1.28.21-1.28,1.64v.37Z"/><path class="cls-4" d="M166.52,46.54h-.52v-4.02s0,0,0,0l-1.6,4.02h-.55l-1.61-4.02h-.02v4.02s-.51,0-.51,0v-4.47h.86l1.55,3.92h.02l1.54-3.92h.84v4.47Z"/><path class="cls-4" d="M171.05,46.54h-.57l-.35-1.01h-2.16l-.35,1.01h-.57l1.62-4.47h.78l1.59,4.47ZM169.99,45.11l-.91-2.64h-.04l-.95,2.64h1.89Z"/><path class="cls-4" d="M172.73,46.54h-.55v-4.03h-1.42v-.44h3.38v.44h-1.42v4.03Z"/><path class="cls-4" d="M177.59,46.54h-2.91v-4.47h2.89v.43h-2.35v1.51h2.21v.42h-2.21v1.66h2.37v.44Z"/><path class="cls-5" d="M181.5,45.12h-1.67v-.45h1.67v.45Z"/><path class="cls-4" d="M187.24,45.32c0,1.01-.32,1.26-1.52,1.26h-.15c-1.45,0-1.69-.22-1.69-1.26v-.18h.51v.16c0,.7.16.85,1.14.85h.12c.87,0,1.04-.13,1.04-.81v-.09c0-.55-.11-.68-1.22-.77-1.29-.1-1.56-.36-1.56-1.18v-.11c0-.87.31-1.16,1.49-1.16h.13c1.35,0,1.6.27,1.6,1.23v.14h-.52v-.12c0-.66-.15-.83-1.05-.83h-.11c-.83,0-1,.14-1,.74v.09c0,.5.14.64,1.2.72,1.33.11,1.58.36,1.58,1.2v.11Z"/><path class="cls-4" d="M189.71,46.58c-1.49,0-1.79-.37-1.79-2.09v-.37c0-1.7.34-2.08,1.78-2.08h.12c1.31,0,1.66.29,1.66,1.27v.14h-.52v-.11c0-.69-.2-.87-1.14-.87h-.11c-1.04,0-1.25.2-1.25,1.64v.37c0,1.45.2,1.64,1.26,1.64h.1c.96,0,1.16-.16,1.16-.88v-.1h.53v.14c0,1.02-.39,1.29-1.68,1.29h-.12Z"/><path class="cls-4" d="M195.82,46.54h-.57l-.35-1.01h-2.16l-.35,1.01h-.57l1.62-4.47h.78l1.59,4.47ZM194.76,45.11l-.91-2.64h-.04l-.95,2.64h1.89Z"/><path class="cls-4" d="M199.04,46.54h-2.69v-4.47h.55v4.02h2.14v.45Z"/><path class="cls-4" d="M202.48,46.54h-2.91v-4.47h2.89v.43h-2.35v1.51h2.21v.42h-2.21v1.66h2.37v.44Z"/></g></svg>