<?xml version="1.0" encoding="UTF-8"?><svg id="Layer_1" xmlns="http://www.w3.org/2000/svg" viewBox="0 0 500 500"><defs><style>.cls-1{fill:#919191;}.cls-2{fill:#ccc;}.cls-3{fill:#606060;}.cls-4{fill:red;}.cls-5{fill:#ff2424;}</style></defs><path class="cls-5" d="M320.96,322.43h-59.21c-4.15,0-7.51-3.36-7.51-7.51s3.36-7.51,7.51-7.51h59.21c11.52,0,20.9-9.37,20.9-20.9v-55.43c0-4.15,3.36-7.51,7.51-7.51s7.51,3.36,7.51,7.51v55.43c0,19.81-16.11,35.92-35.92,35.92Z"/><path class="cls-5" d="M349.37,212.42c-4.15,0-7.51-3.36-7.51-7.51v-69.4c0-4.15,3.36-7.51,7.51-7.51s7.51,3.36,7.51,7.51v69.4c0,4.15-3.36,7.51-7.51,7.51Z"/><path class="cls-5" d="M235.06,322.43h-60.17c-19.81,0-35.92-16.11-35.92-35.92v-154.43c0-19.81,16.11-35.92,35.92-35.92h139.37c4.15,0,7.51,3.36,7.51,7.51s-3.36,7.51-7.51,7.51h-139.37c-11.52,0-20.9,9.37-20.9,20.9v154.43c0,11.52,9.37,20.9,20.9,20.9h60.17c4.15,0,7.51,3.36,7.51,7.51s-3.36,7.51-7.51,7.51Z"/><circle class="cls-5" cx="349.37" cy="103.67" r="15.43"/><rect x="177.77" y="209.29" width="62.97" height="79.75" rx="10.9" ry="10.9"/><rect class="cls-2" x="177.77" y="131.08" width="62.97" height="62.97" rx="10.9" ry="10.9"/><rect class="cls-1" x="258.51" y="131.08" width="62.97" height="62.97" rx="10.9" ry="10.9"/><rect class="cls-3" x="258.51" y="215.01" width="62.97" height="29.3" rx="10.9" ry="10.9"/><rect class="cls-1" x="258.51" y="259.75" width="62.97" height="29.3" rx="10.9" ry="10.9"/><path d="M51.19,411.77l-5.35-12.21H15.99l-5.28,12.21H0l25.67-55.13h11.1l25.59,55.13h-11.18ZM19.37,391.92h23.15l-11.58-26.62-11.58,26.62Z"/><path d="M64.74,371.29c0-10.08,4.57-14.65,14.65-14.65h25.04c10.08,0,14.65,4.57,14.65,14.65v3.31h-10.08v-1.65c0-5.75-2.13-7.88-7.88-7.88h-18.43c-5.75,0-7.88,2.13-7.88,7.88v22.76c0,5.75,2.13,7.88,7.88,7.88h18.74c5.75,0,7.88-2.13,7.88-7.88v-5.67h-16.07v-7.8h25.83v14.88c0,10.08-4.57,14.65-14.65,14.65h-25.04c-10.08,0-14.65-4.57-14.65-14.65v-25.83Z"/><path d="M138.45,403.34h35.75v8.43h-45.83v-55.13h45.04v8.43h-34.96v14.17h31.81v7.8h-31.81v16.3Z"/><path d="M225.55,356.64h9.76v55.13h-8.03l-35.75-40.63v40.63h-9.76v-55.13h8.51l35.28,40.01v-40.01Z"/><path d="M259.33,411.77c-10.08,0-14.65-4.57-14.65-14.65v-25.83c0-10.08,4.57-14.65,14.65-14.65h23.15c10.08,0,14.65,4.57,14.65,14.65v5.83h-9.76v-4.09c0-5.75-2.13-7.88-7.88-7.88h-16.85c-5.75,0-7.88,2.13-7.88,7.88v22.36c0,5.75,2.13,7.88,7.88,7.88h16.85c5.75,0,7.88-2.13,7.88-7.88v-4.8h9.76v6.54c0,10.08-4.57,14.65-14.65,14.65h-23.15Z"/><path d="M356.59,356.64l-23.94,34.81v20.32h-10.08v-20.32l-23.94-34.81h11.73l17.48,26.54,17.48-26.54h11.26Z"/><path class="cls-4" d="M398.88,411.77c-10.08,0-14.65-4.57-14.65-14.65v-25.83c0-10.08,4.57-14.65,14.65-14.65h25.04c10.08,0,14.65,4.57,14.65,14.65v25.83c0,10.08-4.57,14.65-14.65,14.65h-25.04ZM420.62,403.1c5.75,0,7.88-2.13,7.88-7.88v-22.05c0-5.75-2.13-7.88-7.88-7.88h-18.43c-5.75,0-7.88,1.97-7.88,7.88v22.05c0,5.91,2.13,7.88,7.88,7.88h18.43Z"/><path class="cls-4" d="M447.24,395.62h9.76v2.84c0,4.02,1.34,5.35,5.36,5.35h22.21c3.86,0,5.36-1.5,5.36-5.35v-4.49c0-3.86-1.26-4.96-5.36-5.35l-25.36-2.44c-7.88-.63-11.18-3.62-11.18-11.18v-7.17c0-7.64,3.54-11.18,11.18-11.18h28.51c7.56,0,11.18,3.54,11.18,11.18v3.86h-9.77v-1.73c0-3.86-1.5-5.36-5.35-5.36h-20.32c-4.02,0-5.35,1.34-5.35,5.36v2.68c0,3.86,1.26,4.96,5.35,5.35l25.36,2.36c7.87.71,11.18,3.62,11.18,11.18v9.06c0,7.64-3.62,11.18-11.18,11.18h-30.4c-7.64,0-11.18-3.54-11.18-11.18v-4.96Z"/></svg>