<?xml version="1.0" encoding="UTF-8"?><svg id="Layer_1" xmlns="http://www.w3.org/2000/svg" viewBox="0 0 500 500"><defs><style>.cls-1{fill:#919191;}.cls-2{fill:#ccc;}.cls-3{fill:#606060;}.cls-4{fill:#fff;}.cls-5{fill:red;}.cls-6{fill:#ff2424;}</style></defs><path class="cls-6" d="M320.96,304.17h-59.21c-4.15,0-7.51-3.36-7.51-7.51s3.36-7.51,7.51-7.51h59.21c11.52,0,20.9-9.37,20.9-20.9v-55.43c0-4.15,3.36-7.51,7.51-7.51s7.51,3.36,7.51,7.51v55.43c0,19.81-16.11,35.92-35.92,35.92Z"/><path class="cls-6" d="M349.37,194.16c-4.15,0-7.51-3.36-7.51-7.51v-69.4c0-4.15,3.36-7.51,7.51-7.51s7.51,3.36,7.51,7.51v69.4c0,4.15-3.36,7.51-7.51,7.51Z"/><path class="cls-6" d="M235.06,304.17h-60.17c-19.81,0-35.92-16.11-35.92-35.92V113.82c0-19.81,16.11-35.92,35.92-35.92h139.37c4.15,0,7.51,3.36,7.51,7.51s-3.36,7.51-7.51,7.51h-139.37c-11.52,0-20.9,9.37-20.9,20.9v154.43c0,11.52,9.37,20.9,20.9,20.9h60.17c4.15,0,7.51,3.36,7.51,7.51s-3.36,7.51-7.51,7.51Z"/><circle class="cls-6" cx="349.37" cy="85.41" r="15.43"/><rect class="cls-4" x="177.77" y="191.04" width="62.97" height="79.75" rx="10.9" ry="10.9"/><rect class="cls-2" x="177.77" y="112.82" width="62.97" height="62.97" rx="10.9" ry="10.9"/><rect class="cls-1" x="258.51" y="112.82" width="62.97" height="62.97" rx="10.9" ry="10.9"/><rect class="cls-3" x="258.51" y="196.75" width="62.97" height="29.3" rx="10.9" ry="10.9"/><rect class="cls-1" x="258.51" y="241.49" width="62.97" height="29.3" rx="10.9" ry="10.9"/><path class="cls-4" d="M51.19,393.51l-5.35-12.21H15.99l-5.28,12.21H0l25.67-55.13h11.1l25.59,55.13h-11.18ZM19.37,373.66h23.15l-11.58-26.62-11.58,26.62Z"/><path class="cls-4" d="M64.74,353.03c0-10.08,4.57-14.65,14.65-14.65h25.04c10.08,0,14.65,4.57,14.65,14.65v3.31h-10.08v-1.65c0-5.75-2.13-7.88-7.88-7.88h-18.43c-5.75,0-7.88,2.13-7.88,7.88v22.76c0,5.75,2.13,7.88,7.88,7.88h18.74c5.75,0,7.88-2.13,7.88-7.88v-5.67h-16.07v-7.8h25.83v14.88c0,10.08-4.57,14.65-14.65,14.65h-25.04c-10.08,0-14.65-4.57-14.65-14.65v-25.83Z"/><path class="cls-4" d="M138.45,385.08h35.75v8.43h-45.83v-55.13h45.04v8.43h-34.96v14.17h31.81v7.8h-31.81v16.3Z"/><path class="cls-4" d="M225.55,338.38h9.76v55.13h-8.03l-35.75-40.63v40.63h-9.76v-55.13h8.51l35.28,40.01v-40.01Z"/><path class="cls-4" d="M259.33,393.51c-10.08,0-14.65-4.57-14.65-14.65v-25.83c0-10.08,4.57-14.65,14.65-14.65h23.15c10.08,0,14.65,4.57,14.65,14.65v5.83h-9.76v-4.09c0-5.75-2.13-7.88-7.88-7.88h-16.85c-5.75,0-7.88,2.13-7.88,7.88v22.36c0,5.75,2.13,7.88,7.88,7.88h16.85c5.75,0,7.88-2.13,7.88-7.88v-4.8h9.76v6.54c0,10.08-4.57,14.65-14.65,14.65h-23.15Z"/><path class="cls-4" d="M356.59,338.38l-23.94,34.81v20.32h-10.08v-20.32l-23.94-34.81h11.73l17.48,26.54,17.48-26.54h11.26Z"/><path class="cls-5" d="M398.88,393.51c-10.08,0-14.65-4.57-14.65-14.65v-25.83c0-10.08,4.57-14.65,14.65-14.65h25.04c10.08,0,14.65,4.57,14.65,14.65v25.83c0,10.08-4.57,14.65-14.65,14.65h-25.04ZM420.62,384.85c5.75,0,7.88-2.13,7.88-7.88v-22.05c0-5.75-2.13-7.88-7.88-7.88h-18.43c-5.75,0-7.88,1.97-7.88,7.88v22.05c0,5.91,2.13,7.88,7.88,7.88h18.43Z"/><path class="cls-5" d="M447.24,377.37h9.76v2.84c0,4.02,1.34,5.35,5.36,5.35h22.21c3.86,0,5.36-1.5,5.36-5.35v-4.49c0-3.86-1.26-4.96-5.36-5.35l-25.36-2.44c-7.88-.63-11.18-3.62-11.18-11.18v-7.17c0-7.64,3.54-11.18,11.18-11.18h28.51c7.56,0,11.18,3.54,11.18,11.18v3.86h-9.77v-1.73c0-3.86-1.5-5.36-5.35-5.36h-20.32c-4.02,0-5.35,1.34-5.35,5.36v2.68c0,3.86,1.26,4.96,5.35,5.35l25.36,2.36c7.87.71,11.18,3.62,11.18,11.18v9.06c0,7.64-3.62,11.18-11.18,11.18h-30.4c-7.64,0-11.18-3.54-11.18-11.18v-4.96Z"/><rect class="cls-5" x="421.71" y="421.3" width="75.12" height="2.75"/><rect class="cls-5" x="4.57" y="421.3" width="75.12" height="2.75"/><path class="cls-4" d="M123.07,422.14c0-4.87.99-5.91,5.16-5.91h.35c4.18,0,5.16,1.04,5.16,5.91v1.08c0,4.87-.99,5.91-5.16,5.91h-.35c-4.18,0-5.16-1.04-5.16-5.91v-1.08ZM124.62,423.2c0,4.06.58,4.64,3.64,4.64h.34c3.04,0,3.62-.58,3.62-4.64v-1.06c0-4.06-.58-4.66-3.62-4.66h-.34c-3.06,0-3.64.6-3.64,4.66v1.06Z"/><path class="cls-4" d="M137.56,429.02h-1.53v-12.68h4.98c3.69,0,4.47.6,4.47,3.73v.47c0,3.13-.91,3.75-4.42,3.75h-3.5v4.74ZM140.86,423.03c2.76,0,3.11-.41,3.11-2.46v-.54c0-2.11-.37-2.46-3.13-2.46h-3.28v5.46h3.3Z"/><path class="cls-4" d="M155.74,429.02h-8.26v-12.68h8.2v1.23h-6.66v4.29h6.28v1.19h-6.28v4.72h6.71v1.25Z"/><path class="cls-4" d="M167.08,429.02h-1.55v-1.72c0-2.91-.26-3.26-2.7-3.26h-3.65v4.98h-1.53v-12.68h5.41c3.32,0,4.03.76,4.03,3.5v.43c0,2.09-.56,2.8-1.77,3.04v.04c1.42.26,1.77.91,1.77,3.39v2.27ZM163.33,422.83c1.7,0,2.2-.56,2.2-2.33v-.47c0-2.07-.43-2.46-2.8-2.46h-3.56v5.26h4.16Z"/><path class="cls-4" d="M179.78,429.02h-1.62l-.99-2.87h-6.12l-1.01,2.87h-1.6l4.6-12.68h2.22l4.51,12.68ZM176.77,424.95l-2.57-7.48h-.11l-2.68,7.48h5.37Z"/><path class="cls-4" d="M184.55,429.02h-1.55v-11.43h-4.03v-1.25h9.6v1.25h-4.03v11.43Z"/><path class="cls-4" d="M198.35,429.02h-8.26v-12.68h8.2v1.23h-6.66v4.29h6.28v1.19h-6.28v4.72h6.71v1.25Z"/><path class="cls-5" d="M209.43,424.99h-4.74v-1.29h4.74v1.29Z"/><path class="cls-4" d="M226.71,429.02h-1.62l-.99-2.87h-6.12l-1.01,2.87h-1.6l4.6-12.68h2.22l4.51,12.68ZM223.71,424.95l-2.57-7.48h-.11l-2.68,7.48h5.37Z"/><path class="cls-4" d="M232.72,429.13c-3.99,0-4.87-.63-4.87-4.23v-8.56h1.55v8.43c0,2.74.56,3.08,3.28,3.08h.35c2.72,0,3.32-.34,3.32-3.08v-8.43h1.55v8.56c0,3.6-.91,4.23-4.9,4.23h-.28Z"/><path class="cls-4" d="M244.89,429.02h-1.55v-11.43h-4.03v-1.25h9.6v1.25h-4.03v11.43Z"/><path class="cls-4" d="M249.68,422.14c0-4.87.99-5.91,5.16-5.91h.35c4.18,0,5.16,1.04,5.16,5.91v1.08c0,4.87-.99,5.91-5.16,5.91h-.35c-4.18,0-5.16-1.04-5.16-5.91v-1.08ZM251.23,423.2c0,4.06.58,4.64,3.64,4.64h.34c3.04,0,3.62-.58,3.62-4.64v-1.06c0-4.06-.58-4.66-3.62-4.66h-.34c-3.06,0-3.64.6-3.64,4.66v1.06Z"/><path class="cls-4" d="M276.29,429.02h-1.47l.04-11.41h-.06l-4.53,11.41h-1.57l-4.57-11.41h-.06l.04,11.41h-1.47v-12.68h2.44l4.4,11.13h.06l4.36-11.13h2.39v12.68Z"/><path class="cls-4" d="M289.14,429.02h-1.62l-.99-2.87h-6.12l-1.01,2.87h-1.6l4.61-12.68h2.22l4.51,12.68ZM286.14,424.95l-2.57-7.48h-.11l-2.68,7.48h5.37Z"/><path class="cls-4" d="M293.91,429.02h-1.55v-11.43h-4.03v-1.25h9.6v1.25h-4.03v11.43Z"/><path class="cls-4" d="M307.71,429.02h-8.26v-12.68h8.2v1.23h-6.66v4.29h6.28v1.19h-6.28v4.72h6.71v1.25Z"/><path class="cls-5" d="M318.79,424.99h-4.74v-1.29h4.74v1.29Z"/><path class="cls-4" d="M335.08,425.55c0,2.85-.91,3.58-4.33,3.58h-.43c-4.12,0-4.79-.62-4.79-3.56v-.52h1.45v.45c0,1.98.47,2.4,3.24,2.4h.35c2.48,0,2.96-.37,2.96-2.29v-.26c0-1.57-.32-1.94-3.47-2.18-3.65-.28-4.42-1.03-4.42-3.34v-.3c0-2.46.88-3.3,4.21-3.3h.37c3.82,0,4.53.76,4.53,3.49v.41h-1.47v-.34c0-1.88-.43-2.35-2.98-2.35h-.32c-2.37,0-2.83.39-2.83,2.11v.26c0,1.42.39,1.81,3.41,2.05,3.77.3,4.49,1.03,4.49,3.39v.3Z"/><path class="cls-4" d="M342.1,429.13c-4.23,0-5.07-1.06-5.07-5.93v-1.06c0-4.83.95-5.91,5.05-5.91h.34c3.71,0,4.7.82,4.7,3.62v.39h-1.47v-.3c0-1.96-.56-2.46-3.23-2.46h-.3c-2.96,0-3.54.58-3.54,4.66v1.04c0,4.12.56,4.66,3.58,4.66h.28c2.72,0,3.28-.45,3.28-2.5v-.28h1.49v.41c0,2.89-1.1,3.65-4.75,3.65h-.35Z"/><path class="cls-4" d="M359.42,429.02h-1.62l-.99-2.87h-6.12l-1.01,2.87h-1.6l4.61-12.68h2.22l4.51,12.68ZM356.42,424.95l-2.57-7.48h-.11l-2.68,7.48h5.37Z"/><path class="cls-4" d="M368.56,429.02h-7.63v-12.68h1.55v11.41h6.08v1.27Z"/><path class="cls-4" d="M378.33,429.02h-8.26v-12.68h8.2v1.23h-6.66v4.29h6.28v1.19h-6.28v4.72h6.71v1.25Z"/></svg>